<svg xmlns="http://www.w3.org/2000/svg" viewBox="0 0 64 64" fill="none">
  <defs>
    <linearGradient id="g" x1="12" y1="18" x2="52" y2="46" gradientUnits="userSpaceOnUse">
      <stop stop-color="#FF3F86"/>
      <stop offset="0.55" stop-color="#FFD166"/>
      <stop offset="1" stop-color="#4CC9F0"/>
    </linearGradient>
  </defs>
  <rect x="6" y="6" width="52" height="52" rx="16" fill="rgba(255,255,255,0.06)" stroke="rgba(255,255,255,0.16)"/>
  <path d="M18 38c4-14 14-22 28-23 6 0 10 1 14 4-2 2-4 5-5 8-3-2-6-3-10-3-11 1-18 7-22 17-1 3 0 6 2 8-3-1-5-3-7-6-1-2-1-4 0-5z" fill="url(#g)"/>
  <path d="M24 38c4-7 10-11 18-11 6-1 10 1 14 4-1 5-4 9-8 12-5 4-11 5-17 4-3 0-5-2-7-9z" fill="rgba(11,12,16,0.9)"/>
</svg>

