<svg xmlns="http://www.w3.org/2000/svg" width="1200" height="630" viewBox="0 0 1200 630">
  <defs>
    <linearGradient id="bg" x1="0" y1="0" x2="1" y2="1">
      <stop offset="0" stop-color="#0b0c10"/>
      <stop offset="1" stop-color="#10131b"/>
    </linearGradient>
    <linearGradient id="accent" x1="0" y1="0" x2="1" y2="1">
      <stop offset="0" stop-color="#FF3F86"/>
      <stop offset="0.55" stop-color="#FFD166"/>
      <stop offset="1" stop-color="#4CC9F0"/>
    </linearGradient>
  </defs>
  <rect width="1200" height="630" fill="url(#bg)"/>
  <circle cx="220" cy="160" r="210" fill="#4CC9F0" opacity="0.10"/>
  <circle cx="1040" cy="120" r="260" fill="#FF3F86" opacity="0.12"/>
  <circle cx="980" cy="520" r="280" fill="#FFD166" opacity="0.10"/>

  <rect x="84" y="90" width="1032" height="450" rx="36" fill="rgba(255,255,255,0.03)" stroke="rgba(255,255,255,0.10)"/>

  <g transform="translate(120 150)">
    <rect x="0" y="0" width="84" height="84" rx="22" fill="rgba(255,255,255,0.06)" stroke="rgba(255,255,255,0.14)"/>
    <path d="M20 52c4-18 16-30 34-32 10-1 19 1 25 6-3 2-5 5-6 8-4-4-10-6-17-5-15 1-24 10-28 24 0 1 0 1 0 2-1 4-1 8 1 12-3-1-6-3-7-7-1-3-1-6 0-8z" fill="#FFD166"/>
    <path d="M27 54c5-11 14-18 26-19 9-1 16 1 22 6-2 7-5 13-11 18-6 5-14 7-23 7-6 0-11-2-14-6z" fill="rgba(11,12,16,0.86)"/>
  </g>

  <g fill="#EEF2FF" font-family="ui-sans-serif, system-ui, -apple-system, Segoe UI, Roboto, Helvetica, Arial">
    <text x="228" y="210" font-size="64" font-weight="800">Dancing Taco</text>
    <text x="228" y="270" font-size="32" opacity="0.86">A lightweight Chrome extension landing page.</text>
  </g>

  <g>
    <rect x="228" y="320" width="620" height="76" rx="38" fill="url(#accent)"/>
    <text x="268" y="370" font-size="30" font-family="ui-sans-serif, system-ui" font-weight="750" fill="#141018">
      Add to Chrome
    </text>
  </g>
</svg>

