<svg xmlns="http://www.w3.org/2000/svg" viewBox="0 0 128 128" fill="none">
  <defs>
    <linearGradient id="shell" x1="28" y1="44" x2="100" y2="92" gradientUnits="userSpaceOnUse">
      <stop stop-color="#FFD166"/>
      <stop offset="1" stop-color="#FFB703"/>
    </linearGradient>
    <linearGradient id="meat" x1="40" y1="64" x2="88" y2="100" gradientUnits="userSpaceOnUse">
      <stop stop-color="#8D4B2B"/>
      <stop offset="1" stop-color="#6D2E1B"/>
    </linearGradient>
    <linearGradient id="salsa" x1="44" y1="62" x2="94" y2="94" gradientUnits="userSpaceOnUse">
      <stop stop-color="#FF3F86"/>
      <stop offset="1" stop-color="#FF006E"/>
    </linearGradient>
    <linearGradient id="lettuce" x1="36" y1="58" x2="86" y2="90" gradientUnits="userSpaceOnUse">
      <stop stop-color="#4CC9F0"/>
      <stop offset="1" stop-color="#2EC4B6"/>
    </linearGradient>
  </defs>

  <path d="M26 78c6-28 26-48 58-52 18-2 32 2 42 10-4 3-7 7-10 12-7-7-17-10-30-9-26 2-42 18-48 41 0 1 0 2-1 3-2 7-2 14 1 21-5-2-9-6-12-11-2-5-2-10 0-15z" fill="url(#shell)"/>
  <path d="M37 82c8-17 22-28 43-30 15-2 27 2 36 10-3 11-9 21-18 28-10 8-23 12-38 11-10 0-18-3-23-9z" fill="rgba(16,19,27,0.78)"/>

  <path d="M42 82c9-14 22-22 39-24 10-1 19 1 26 6-1 7-5 14-11 20-8 7-18 10-30 10-10 0-18-3-24-12z" fill="url(#meat)"/>
  <path d="M44 78c10-10 22-15 36-16 8 0 15 2 20 6-3 6-8 11-14 15-8 4-16 6-25 5-8-1-14-4-17-10z" fill="url(#lettuce)"/>
  <path d="M50 74c8-6 17-9 28-9 7 0 12 1 16 4-4 6-10 10-17 12-8 2-16 2-23-2-2-1-3-3-4-5z" fill="url(#salsa)"/>

  <path d="M44 98c-2 0-4-1-5-3-2-4-1-9 4-13 6 10 14 15 26 15 16 0 30-6 41-19 3 4 2 8-2 12-14 14-35 20-60 18-2 0-3 0-4 0z" fill="rgba(255,255,255,0.10)"/>
</svg>

